<svg xmlns="http://www.w3.org/2000/svg" viewBox="0 0 1200 630" width="1200" height="630">
  <defs>
    <linearGradient id="bgOG" x1="0%" y1="0%" x2="100%" y2="100%">
      <stop offset="0%" style="stop-color:#0a0a0a"/>
      <stop offset="50%" style="stop-color:#0e0e0e"/>
      <stop offset="100%" style="stop-color:#141414"/>
    </linearGradient>
    <linearGradient id="cyanOG" x1="0%" y1="0%" x2="100%" y2="0%">
      <stop offset="0%" style="stop-color:#00b4d8"/>
      <stop offset="100%" style="stop-color:#0096c7"/>
    </linearGradient>
    <linearGradient id="purpleOG" x1="0%" y1="0%" x2="100%" y2="0%">
      <stop offset="0%" style="stop-color:#7c3aed"/>
      <stop offset="100%" style="stop-color:#6d28d9"/>
    </linearGradient>
    <linearGradient id="lineOG" x1="0%" y1="0%" x2="100%" y2="0%">
      <stop offset="0%" style="stop-color:transparent"/>
      <stop offset="20%" style="stop-color:rgba(0,180,216,0.4)"/>
      <stop offset="80%" style="stop-color:rgba(124,58,237,0.4)"/>
      <stop offset="100%" style="stop-color:transparent"/>
    </linearGradient>
    <radialGradient id="glowOG" cx="30%" cy="40%" r="60%">
      <stop offset="0%" style="stop-color:rgba(0,180,216,0.08)"/>
      <stop offset="100%" style="stop-color:transparent"/>
    </radialGradient>
  </defs>

  <rect width="1200" height="630" fill="url(#bgOG)"/>
  <rect width="1200" height="630" fill="url(#glowOG)"/>

  <g opacity="0.03" stroke="white" stroke-width="1">
    <line x1="0" y1="80" x2="1200" y2="80"/>
    <line x1="0" y1="160" x2="1200" y2="160"/>
    <line x1="0" y1="240" x2="1200" y2="240"/>
    <line x1="0" y1="320" x2="1200" y2="320"/>
    <line x1="0" y1="400" x2="1200" y2="400"/>
    <line x1="0" y1="480" x2="1200" y2="480"/>
    <line x1="0" y1="560" x2="1200" y2="560"/>
    <line x1="200" y1="0" x2="200" y2="630"/>
    <line x1="400" y1="0" x2="400" y2="630"/>
    <line x1="600" y1="0" x2="600" y2="630"/>
    <line x1="800" y1="0" x2="800" y2="630"/>
    <line x1="1000" y1="0" x2="1000" y2="630"/>
  </g>

  <rect x="0" y="0" width="1200" height="3" fill="url(#lineOG)"/>
  <rect x="0" y="627" width="1200" height="3" fill="url(#lineOG)"/>

  <g transform="translate(80, 160)">
    <rect x="0" y="0" width="200" height="200" rx="24" fill="url(#cyanOG)" opacity="0.1"/>
    <rect x="10" y="10" width="180" height="180" rx="18" fill="none" stroke="rgba(255,255,255,0.08)" stroke-width="2"/>
    <circle cx="50" cy="50" r="20" fill="none" stroke="rgba(255,255,255,0.25)" stroke-width="3"/>
    <path d="M 42 50 L 50 58 L 60 40" stroke="url(#cyanOG)" stroke-width="4" fill="none" stroke-linecap="round" stroke-linejoin="round"/>
    <rect x="80" y="40" width="40" height="4" rx="2" fill="rgba(255,255,255,0.4)"/>
    <rect x="80" y="50" width="30" height="4" rx="2" fill="rgba(255,255,255,0.25)"/>
    <rect x="20" y="90" width="160" height="50" rx="8" fill="rgba(255,255,255,0.04)"/>
    <text x="100" y="118" text-anchor="middle" font-family="Segoe UI,Arial,sans-serif" font-size="8" fill="rgba(255,255,255,0.25)">BOOTABLE · PORTABLE · GAMING</text>
    <text x="100" y="135" text-anchor="middle" font-family="Segoe UI,Arial,sans-serif" font-size="8" fill="rgba(255,255,255,0.25)">CONSOLE EXPERIENCE</text>
  </g>

  <text x="340" y="230" font-family="Segoe UI Variable,Segoe UI,Arial,sans-serif" font-size="72" font-weight="800" fill="white" letter-spacing="6">RQBBOX</text>
  <text x="340" y="290" font-family="Segoe UI Variable,Segoe UI,Arial,sans-serif" font-size="42" font-weight="300" fill="url(#cyanOG)" letter-spacing="8">Experience OS 1.0</text>

  <rect x="340" y="310" width="500" height="1" fill="url(#lineOG)"/>

  <text x="340" y="350" font-family="Segoe UI,Arial,sans-serif" font-size="16" fill="rgba(255,255,255,0.4)" letter-spacing="4">A FULL CONSOLE GAMING EXPERIENCE</text>
  <text x="340" y="375" font-family="Segoe UI,Arial,sans-serif" font-size="16" fill="rgba(255,255,255,0.4)" letter-spacing="4">THAT BOOTS FROM ANY USB DRIVE</text>

  <g transform="translate(340, 410)">
    <rect x="0" y="0" width="80" height="28" rx="14" fill="rgba(0,180,216,0.15)" stroke="rgba(0,180,216,0.3)" stroke-width="1"/>
    <text x="40" y="18" text-anchor="middle" font-family="Segoe UI,Arial,sans-serif" font-size="10" fill="#00b4d8">v1.0.0</text>

    <rect x="92" y="0" width="100" height="28" rx="14" fill="rgba(0,180,216,0.15)" stroke="rgba(0,180,216,0.3)" stroke-width="1"/>
    <text x="142" y="18" text-anchor="middle" font-family="Segoe UI,Arial,sans-serif" font-size="10" fill="#00b4d8">USB BOOT</text>

    <rect x="204" y="0" width="110" height="28" rx="14" fill="rgba(124,58,237,0.15)" stroke="rgba(124,58,237,0.3)" stroke-width="1"/>
    <text x="259" y="18" text-anchor="middle" font-family="Segoe UI,Arial,sans-serif" font-size="10" fill="#7c3aed">GAMING OS</text>
  </g>

  <text x="600" y="560" text-anchor="middle" font-family="Segoe UI,Arial,sans-serif" font-size="18" fill="rgba(255,255,255,0.3)" letter-spacing="6">by RhysTech</text>
</svg>
