<svg xmlns="http://www.w3.org/2000/svg" viewBox="0 0 512 512" width="512" height="512">
  <defs>
    <linearGradient id="bgGradOS" x1="0%" y1="0%" x2="100%" y2="100%">
      <stop offset="0%" style="stop-color:#0a0a0a"/>
      <stop offset="50%" style="stop-color:#0e0e0e"/>
      <stop offset="100%" style="stop-color:#141414"/>
    </linearGradient>
    <linearGradient id="osGrad" x1="0%" y1="0%" x2="100%" y2="100%">
      <stop offset="0%" style="stop-color:#0a5c8a"/>
      <stop offset="50%" style="stop-color:#107c9e"/>
      <stop offset="100%" style="stop-color:#1db9c4"/>
    </linearGradient>
    <filter id="shadowOS">
      <feDropShadow dx="0" dy="4" stdDeviation="8" flood-color="rgba(16,124,158,0.3)"/>
    </filter>
  </defs>
  <rect width="512" height="512" rx="96" fill="url(#bgGradOS)"/>
  <g opacity="0.03" stroke="white" stroke-width="1">
    <line x1="0" y1="64" x2="512" y2="64"/>
    <line x1="0" y1="128" x2="512" y2="128"/>
    <line x1="0" y1="192" x2="512" y2="192"/>
    <line x1="0" y1="256" x2="512" y2="256"/>
    <line x1="0" y1="320" x2="512" y2="320"/>
    <line x1="0" y1="384" x2="512" y2="384"/>
    <line x1="0" y1="448" x2="512" y2="448"/>
    <line x1="64" y1="0" x2="64" y2="512"/>
    <line x1="128" y1="0" x2="128" y2="512"/>
    <line x1="192" y1="0" x2="192" y2="512"/>
    <line x1="256" y1="0" x2="256" y2="512"/>
    <line x1="320" y1="0" x2="320" y2="512"/>
    <line x1="384" y1="0" x2="384" y2="512"/>
    <line x1="448" y1="0" x2="448" y2="512"/>
  </g>
  <g filter="url(#shadowOS)">
    <rect x="96" y="120" width="320" height="200" rx="24" fill="url(#osGrad)" opacity="0.9"/>
    <rect x="108" y="132" width="296" height="176" rx="16" fill="none" stroke="rgba(255,255,255,0.15)" stroke-width="2"/>
    <circle cx="128" cy="180" r="32" fill="none" stroke="rgba(255,255,255,0.3)" stroke-width="4"/>
    <path d="M 116 180 L 128 192 L 144 168" stroke="white" stroke-width="6" fill="none" stroke-linecap="round" stroke-linejoin="round"/>
    <path d="M 192 172 L 224 172 M 192 184 L 216 184 M 192 196 L 208 196" stroke="rgba(255,255,255,0.6)" stroke-width="3" stroke-linecap="round"/>
    <rect x="192" y="210" width="32" height="32" rx="6" fill="rgba(255,255,255,0.1)"/>
    <rect x="232" y="210" width="32" height="32" rx="6" fill="rgba(255,255,255,0.1)"/>
    <rect x="272" y="210" width="32" height="32" rx="6" fill="rgba(255,255,255,0.1)"/>
    <circle cx="208" cy="226" r="4" fill="rgba(255,255,255,0.4)"/>
    <circle cx="248" cy="226" r="4" fill="rgba(255,255,255,0.4)"/>
    <circle cx="288" cy="226" r="4" fill="rgba(255,255,255,0.4)"/>
    <text x="128" y="252" text-anchor="middle" font-family="Segoe UI,Arial,sans-serif" font-size="10" fill="rgba(255,255,255,0.4)">PORTABLE</text>
  </g>
  <text x="256" y="380" text-anchor="middle" font-family="Segoe UI Variable,Segoe UI,Arial,sans-serif" font-size="48" font-weight="800" fill="white" letter-spacing="6">RQBBOX</text>
  <text x="256" y="425" text-anchor="middle" font-family="Segoe UI Variable,Segoe UI,Arial,sans-serif" font-size="24" font-weight="300" fill="url(#osGrad)" letter-spacing="8">Experience OS 1.0</text>
  <text x="256" y="455" text-anchor="middle" font-family="Segoe UI,Arial,sans-serif" font-size="11" fill="rgba(255,255,255,0.3)" letter-spacing="4">CONSOLE GAMING EXPERIENCE</text>
  <rect x="160" y="470" width="192" height="20" rx="10" fill="rgba(16,124,158,0.15)"/>
  <text x="256" y="484" text-anchor="middle" font-family="Segoe UI,Arial,sans-serif" font-size="10" fill="#1db9c4">v1.0.0 — Experience OS</text>
</svg>
