<svg xmlns="http://www.w3.org/2000/svg" viewBox="0 0 1200 630" width="1200" height="630">
  <defs>
    <linearGradient id="bgSP" x1="0%" y1="0%" x2="100%" y2="100%">
      <stop offset="0%" style="stop-color:#0a0a0a"/>
      <stop offset="50%" style="stop-color:#0e0e0e"/>
      <stop offset="100%" style="stop-color:#141414"/>
    </linearGradient>
    <linearGradient id="cyanSP" x1="0%" y1="0%" x2="100%" y2="0%">
      <stop offset="0%" style="stop-color:#00b4d8"/>
      <stop offset="100%" style="stop-color:#0096c7"/>
    </linearGradient>
    <linearGradient id="purpleSP" x1="0%" y1="0%" x2="100%" y2="0%">
      <stop offset="0%" style="stop-color:#7c3aed"/>
      <stop offset="100%" style="stop-color:#6d28d9"/>
    </linearGradient>
    <linearGradient id="lineSP" x1="0%" y1="0%" x2="100%" y2="0%">
      <stop offset="0%" style="stop-color:rgba(0,180,216,0.6)"/>
      <stop offset="50%" style="stop-color:rgba(124,58,237,0.6)"/>
      <stop offset="100%" style="stop-color:rgba(0,180,216,0.6)"/>
    </linearGradient>
    <radialGradient id="glowSP1" cx="20%" cy="30%" r="50%">
      <stop offset="0%" style="stop-color:rgba(0,180,216,0.1)"/>
      <stop offset="100%" style="stop-color:transparent"/>
    </radialGradient>
    <radialGradient id="glowSP2" cx="80%" cy="70%" r="50%">
      <stop offset="0%" style="stop-color:rgba(124,58,237,0.08)"/>
      <stop offset="100%" style="stop-color:transparent"/>
    </radialGradient>
  </defs>

  <rect width="1200" height="630" fill="url(#bgSP)"/>
  <rect width="1200" height="630" fill="url(#glowSP1)"/>
  <rect width="1200" height="630" fill="url(#glowSP2)"/>

  <g opacity="0.03" stroke="white" stroke-width="1">
    <line x1="0" y1="80" x2="1200" y2="80"/>
    <line x1="0" y1="160" x2="1200" y2="160"/>
    <line x1="0" y1="240" x2="1200" y2="240"/>
    <line x1="0" y1="320" x2="1200" y2="320"/>
    <line x1="0" y1="400" x2="1200" y2="400"/>
    <line x1="0" y1="480" x2="1200" y2="480"/>
    <line x1="0" y1="560" x2="1200" y2="560"/>
    <line x1="200" y1="0" x2="200" y2="630"/>
    <line x1="400" y1="0" x2="400" y2="630"/>
    <line x1="600" y1="0" x2="600" y2="630"/>
    <line x1="800" y1="0" x2="800" y2="630"/>
    <line x1="1000" y1="0" x2="1000" y2="630"/>
  </g>

  <rect x="0" y="0" width="1200" height="4" fill="url(#lineSP)"/>
  <rect x="0" y="626" width="1200" height="4" fill="url(#lineSP)"/>

  <g transform="translate(100, 100)">
    <rect x="0" y="0" width="400" height="400" rx="32" fill="url(#cyanSP)" opacity="0.08"/>
    <rect x="12" y="12" width="376" height="376" rx="24" fill="none" stroke="rgba(255,255,255,0.06)" stroke-width="2"/>

    <circle cx="80" cy="80" r="36" fill="none" stroke="rgba(255,255,255,0.2)" stroke-width="4"/>
    <path d="M 68 80 L 80 92 L 96 64" stroke="url(#cyanSP)" stroke-width="6" fill="none" stroke-linecap="round" stroke-linejoin="round"/>

    <rect x="140" y="68" width="80" height="5" rx="2.5" fill="rgba(255,255,255,0.4)"/>
    <rect x="140" y="82" width="60" height="5" rx="2.5" fill="rgba(255,255,255,0.25)"/>
    <rect x="140" y="96" width="40" height="5" rx="2.5" fill="rgba(255,255,255,0.15)"/>

    <rect x="40" y="150" width="320" height="80" rx="12" fill="rgba(255,255,255,0.03)"/>
    <text x="200" y="182" text-anchor="middle" font-family="Segoe UI,Arial,sans-serif" font-size="10" fill="rgba(255,255,255,0.3)">BOOTABLE · PORTABLE · GAMING</text>
    <text x="200" y="200" text-anchor="middle" font-family="Segoe UI,Arial,sans-serif" font-size="10" fill="rgba(255,255,255,0.3)">CONSOLE EXPERIENCE FOR PC</text>

    <g transform="translate(40, 260)">
      <rect x="0" y="0" width="60" height="60" rx="8" fill="rgba(0,180,216,0.1)"/>
      <text x="30" y="36" text-anchor="middle" font-family="Segoe UI,Arial,sans-serif" font-size="8" fill="rgba(255,255,255,0.3)">USB</text>

      <rect x="80" y="0" width="60" height="60" rx="8" fill="rgba(124,58,237,0.1)"/>
      <text x="110" y="36" text-anchor="middle" font-family="Segoe UI,Arial,sans-serif" font-size="8" fill="rgba(255,255,255,0.3)">BOOT</text>

      <rect x="160" y="0" width="60" height="60" rx="8" fill="rgba(0,180,216,0.1)"/>
      <text x="190" y="36" text-anchor="middle" font-family="Segoe UI,Arial,sans-serif" font-size="8" fill="rgba(255,255,255,0.3)">PLAY</text>

      <rect x="240" y="0" width="60" height="60" rx="8" fill="rgba(124,58,237,0.1)"/>
      <text x="270" y="36" text-anchor="middle" font-family="Segoe UI,Arial,sans-serif" font-size="8" fill="rgba(255,255,255,0.3)">GAME</text>
    </g>
  </g>

  <text x="620" y="180" font-family="Segoe UI Variable,Segoe UI,Arial,sans-serif" font-size="72" font-weight="800" fill="white" letter-spacing="6">RQBBOX</text>
  <text x="620" y="250" font-family="Segoe UI Variable,Segoe UI,Arial,sans-serif" font-size="48" font-weight="300" fill="url(#cyanSP)" letter-spacing="8">Experience OS 1.0</text>

  <rect x="620" y="275" width="480" height="1" fill="url(#lineSP)"/>

  <text x="620" y="320" font-family="Segoe UI,Arial,sans-serif" font-size="18" fill="rgba(255,255,255,0.5)" letter-spacing="4">CONSOLE GAMING EXPERIENCE</text>
  <text x="620" y="350" font-family="Segoe UI,Arial,sans-serif" font-size="14" fill="rgba(255,255,255,0.3)" letter-spacing="2">A Full Console Gaming Experience That Boots From Any USB Drive</text>

  <g transform="translate(620, 390)">
    <rect x="0" y="0" width="80" height="32" rx="16" fill="rgba(0,180,216,0.15)" stroke="rgba(0,180,216,0.3)" stroke-width="1"/>
    <text x="40" y="20" text-anchor="middle" font-family="Segoe UI,Arial,sans-serif" font-size="11" fill="#00b4d8">v1.0.0</text>

    <rect x="92" y="0" width="100" height="32" rx="16" fill="rgba(0,180,216,0.15)" stroke="rgba(0,180,216,0.3)" stroke-width="1"/>
    <text x="142" y="20" text-anchor="middle" font-family="Segoe UI,Arial,sans-serif" font-size="11" fill="#00b4d8">USB BOOT</text>

    <rect x="204" y="0" width="110" height="32" rx="16" fill="rgba(124,58,237,0.15)" stroke="rgba(124,58,237,0.3)" stroke-width="1"/>
    <text x="259" y="20" text-anchor="middle" font-family="Segoe UI,Arial,sans-serif" font-size="11" fill="#7c3aed">GAMING OS</text>
  </g>

  <text x="920" y="540" text-anchor="middle" font-family="Segoe UI Variable,Segoe UI,Arial,sans-serif" font-size="48" font-weight="800" fill="url(#purpleSP)" opacity="0.15" letter-spacing="8">1.0</text>

  <text x="920" y="580" text-anchor="middle" font-family="Segoe UI,Arial,sans-serif" font-size="16" fill="rgba(255,255,255,0.3)" letter-spacing="6">by RhysTech</text>
</svg>
