<svg xmlns="http://www.w3.org/2000/svg" viewBox="0 0 512 512" width="512" height="512">
  <defs>
    <linearGradient id="bg" x1="0%" y1="0%" x2="100%" y2="100%">
      <stop offset="0%" style="stop-color:#0a0a0a"/>
      <stop offset="100%" style="stop-color:#141414"/>
    </linearGradient>
    <linearGradient id="green" x1="0%" y1="0%" x2="100%" y2="100%">
      <stop offset="0%" style="stop-color:#107c10"/>
      <stop offset="100%" style="stop-color:#1db954"/>
    </linearGradient>
    <filter id="glow">
      <feGaussianBlur stdDeviation="4" result="coloredBlur"/>
      <feMerge>
        <feMergeNode in="coloredBlur"/>
        <feMergeNode in="SourceGraphic"/>
      </feMerge>
    </filter>
  </defs>
  <rect width="512" height="512" rx="100" fill="url(#bg)"/>
  <circle cx="256" cy="230" r="140" fill="rgba(16,124,16,0.08)" filter="url(#glow)"/>
  <g transform="translate(106, 110)">
    <path d="M 40 80 Q 40 40 80 40 L 160 40 Q 200 40 200 80 L 200 120 Q 200 160 240 180 L 260 190 Q 280 200 280 220 L 280 230 Q 280 250 260 250 L 240 245 Q 200 235 180 240 L 160 245 Q 120 250 80 245 L 60 240 Q 40 235 20 250 L 0 255 Q -20 260 -20 240 L -20 230 Q -20 210 0 200 L 20 190 Q 60 175 60 140 L 60 120 Q 60 80 40 80 Z" fill="url(#green)"/>
    <ellipse cx="30" cy="210" rx="35" ry="50" fill="url(#green)" opacity="0.8"/>
    <ellipse cx="250" cy="210" rx="35" ry="50" fill="url(#green)" opacity="0.8"/>
    <g transform="translate(50, 120)">
      <rect x="0" y="-4" width="40" height="8" rx="2" fill="#0a0a0a"/>
      <rect x="16" y="-20" width="8" height="40" rx="2" fill="#0a0a0a"/>
    </g>
    <circle cx="200" cy="110" r="10" fill="#0a0a0a"/>
    <circle cx="230" cy="140" r="10" fill="#0a0a0a"/>
    <circle cx="200" cy="170" r="10" fill="#0a0a0a"/>
    <circle cx="170" cy="140" r="10" fill="#0a0a0a"/>
    <text x="200" y="114" text-anchor="middle" font-family="sans-serif" font-size="10" font-weight="bold" fill="#1db954">Y</text>
    <text x="230" y="144" text-anchor="middle" font-family="sans-serif" font-size="10" font-weight="bold" fill="#1db954">B</text>
    <text x="200" y="174" text-anchor="middle" font-family="sans-serif" font-size="10" font-weight="bold" fill="#1db954">A</text>
    <text x="170" y="144" text-anchor="middle" font-family="sans-serif" font-size="10" font-weight="bold" fill="#1db954">X</text>
    <circle cx="140" cy="140" r="18" fill="#0a0a0a" stroke="#1db954" stroke-width="2"/>
    <path d="M 132 135 L 148 140 L 132 145 Z" fill="#1db954"/>
  </g>
  <text x="256" y="440" text-anchor="middle" font-family="Segoe UI, sans-serif" font-size="52" font-weight="800" letter-spacing="3" fill="url(#green)">RQBBOX</text>
  <text x="256" y="480" text-anchor="middle" font-family="Segoe UI, sans-serif" font-size="20" font-weight="300" letter-spacing="14" fill="rgba(255,255,255,0.4)">M O D E</text>
</svg>
