<svg xmlns="http://www.w3.org/2000/svg" viewBox="0 0 256 256" width="256" height="256">
  <circle cx="128" cy="128" r="116" fill="#0a0a0a" stroke="#1a1a2e" stroke-width="4"/>
  <circle cx="128" cy="128" r="96" fill="#1b2838"/>
  <g transform="translate(128,128)" fill="white" opacity="0.9">
    <path d="M -50 -30 C -50 -50 -30 -65 -10 -60 C 5 -56 15 -40 20 -25 C 25 -35 40 -40 55 -35 C 70 -30 80 -15 75 0 C 70 15 55 25 40 25 L -60 20 C -65 15 -70 5 -65 0 C -60 -5 -55 -15 -50 -30 Z"/>
    <circle cx="5" cy="-10" r="3" fill="#1b2838"/>
  </g>
  <text x="128" y="210" text-anchor="middle" font-family="Arial,sans-serif" font-size="14" font-weight="bold" fill="rgba(255,255,255,0.6)">STEAM</text>
</svg>
