<svg xmlns="http://www.w3.org/2000/svg" viewBox="0 0 1280 320" width="1280" height="320">
  <defs>
    <linearGradient id="bg" x1="0%" y1="0%" x2="100%" y2="100%">
      <stop offset="0%" style="stop-color:#0a0a0a"/>
      <stop offset="50%" style="stop-color:#0e0e0e"/>
      <stop offset="100%" style="stop-color:#0a0a0a"/>
    </linearGradient>
    <linearGradient id="green" x1="0%" y1="0%" x2="100%" y2="0%">
      <stop offset="0%" style="stop-color:#0a5c0a"/>
      <stop offset="50%" style="stop-color:#107c10"/>
      <stop offset="100%" style="stop-color:#1db954"/>
    </linearGradient>
    <radialGradient id="glow" cx="30%" cy="50%" r="50%">
      <stop offset="0%" style="stop-color:rgba(16,124,16,0.15)"/>
      <stop offset="100%" style="stop-color:transparent"/>
    </radialGradient>
    <linearGradient id="lineGrad" x1="0%" y1="0%" x2="100%" y2="0%">
      <stop offset="0%" style="stop-color:transparent"/>
      <stop offset="20%" style="stop-color:rgba(16,124,16,0.5)"/>
      <stop offset="80%" style="stop-color:rgba(16,124,16,0.5)"/>
      <stop offset="100%" style="stop-color:transparent"/>
    </linearGradient>
  </defs>

  <!-- Background -->
  <rect width="1280" height="320" fill="url(#bg)"/>

  <!-- Glow -->
  <rect width="1280" height="320" fill="url(#glow)"/>

  <!-- Grid dots -->
  <g opacity="0.04" fill="white">
    <circle cx="100" cy="50" r="1.5"/>
    <circle cx="200" cy="50" r="1.5"/>
    <circle cx="300" cy="50" r="1.5"/>
    <circle cx="400" cy="50" r="1.5"/>
    <circle cx="500" cy="50" r="1.5"/>
    <circle cx="600" cy="50" r="1.5"/>
    <circle cx="700" cy="50" r="1.5"/>
    <circle cx="800" cy="50" r="1.5"/>
    <circle cx="900" cy="50" r="1.5"/>
    <circle cx="1000" cy="50" r="1.5"/>
    <circle cx="1100" cy="50" r="1.5"/>
    <circle cx="1200" cy="50" r="1.5"/>
    <circle cx="100" cy="100" r="1.5"/>
    <circle cx="200" cy="100" r="1.5"/>
    <circle cx="300" cy="100" r="1.5"/>
    <circle cx="400" cy="100" r="1.5"/>
    <circle cx="500" cy="100" r="1.5"/>
    <circle cx="600" cy="100" r="1.5"/>
    <circle cx="700" cy="100" r="1.5"/>
    <circle cx="800" cy="100" r="1.5"/>
    <circle cx="900" cy="100" r="1.5"/>
    <circle cx="1000" cy="100" r="1.5"/>
    <circle cx="1100" cy="100" r="1.5"/>
    <circle cx="1200" cy="100" r="1.5"/>
    <circle cx="100" cy="150" r="1.5"/>
    <circle cx="200" cy="150" r="1.5"/>
    <circle cx="300" cy="150" r="1.5"/>
    <circle cx="400" cy="150" r="1.5"/>
    <circle cx="500" cy="150" r="1.5"/>
    <circle cx="600" cy="150" r="1.5"/>
    <circle cx="700" cy="150" r="1.5"/>
    <circle cx="800" cy="150" r="1.5"/>
    <circle cx="900" cy="150" r="1.5"/>
    <circle cx="1000" cy="150" r="1.5"/>
    <circle cx="1100" cy="150" r="1.5"/>
    <circle cx="1200" cy="150" r="1.5"/>
    <circle cx="100" cy="200" r="1.5"/>
    <circle cx="200" cy="200" r="1.5"/>
    <circle cx="300" cy="200" r="1.5"/>
    <circle cx="400" cy="200" r="1.5"/>
    <circle cx="500" cy="200" r="1.5"/>
    <circle cx="600" cy="200" r="1.5"/>
    <circle cx="700" cy="200" r="1.5"/>
    <circle cx="800" cy="200" r="1.5"/>
    <circle cx="900" cy="200" r="1.5"/>
    <circle cx="1000" cy="200" r="1.5"/>
    <circle cx="1100" cy="200" r="1.5"/>
    <circle cx="1200" cy="200" r="1.5"/>
    <circle cx="100" cy="250" r="1.5"/>
    <circle cx="200" cy="250" r="1.5"/>
    <circle cx="300" cy="250" r="1.5"/>
    <circle cx="400" cy="250" r="1.5"/>
    <circle cx="500" cy="250" r="1.5"/>
    <circle cx="600" cy="250" r="1.5"/>
    <circle cx="700" cy="250" r="1.5"/>
    <circle cx="800" cy="250" r="1.5"/>
    <circle cx="900" cy="250" r="1.5"/>
    <circle cx="1000" cy="250" r="1.5"/>
    <circle cx="1100" cy="250" r="1.5"/>
    <circle cx="1200" cy="250" r="1.5"/>
  </g>

  <!-- Accent line -->
  <rect x="0" y="0" width="1280" height="2" fill="url(#lineGrad)"/>
  <rect x="0" y="318" width="1280" height="2" fill="url(#lineGrad)"/>

  <!-- Left side: Gamepad icon -->
  <g transform="translate(100, 80) scale(0.9)" opacity="0.15">
    <path d="M 40 80 Q 40 40 80 40 L 160 40 Q 200 40 200 80 L 200 120 Q 200 160 240 180 L 260 190 Q 280 200 280 220 L 280 230 Q 280 250 260 250 L 240 245 Q 200 235 180 240 L 160 245 Q 120 250 80 245 L 60 240 Q 40 235 20 250 L 0 255 Q -20 260 -20 240 L -20 230 Q -20 210 0 200 L 20 190 Q 60 175 60 140 L 60 120 Q 60 80 40 80 Z" 
          fill="url(#green)"/>
    <ellipse cx="30" cy="210" rx="35" ry="50" fill="url(#green)" opacity="0.8"/>
    <ellipse cx="250" cy="210" rx="35" ry="50" fill="url(#green)" opacity="0.8"/>
    <circle cx="140" cy="140" r="18" fill="#0a0a0a" stroke="#1db954" stroke-width="2"/>
  </g>

  <!-- Main Title -->
  <text x="640" y="140" text-anchor="middle" font-family="Segoe UI Variable, Segoe UI, system-ui, sans-serif" font-size="80" font-weight="800" letter-spacing="6" fill="url(#green)">RQBBOX Experience OS 1.0</text>

  <!-- Divider -->
  <rect x="340" y="160" width="600" height="1" fill="url(#lineGrad)"/>

  <!-- Tagline -->
  <text x="640" y="200" text-anchor="middle" font-family="Segoe UI Variable, Segoe UI, system-ui, sans-serif" font-size="22" font-weight="300" letter-spacing="8" fill="rgba(255,255,255,0.4)">CONSOLE GAMING EXPERIENCE FOR PC</text>

  <!-- Feature pills -->
  <g transform="translate(640, 250)" text-anchor="middle">
    <rect x="-320" y="-16" width="120" height="32" rx="16" fill="rgba(16,124,16,0.15)" stroke="rgba(16,124,16,0.3)" stroke-width="1"/>
    <text x="-260" y="5" font-family="Segoe UI, system-ui, sans-serif" font-size="12" fill="#1db954">Controller Nav</text>

    <rect x="-180" y="-16" width="120" height="32" rx="16" fill="rgba(16,124,16,0.15)" stroke="rgba(16,124,16,0.3)" stroke-width="1"/>
    <text x="-120" y="5" font-family="Segoe UI, system-ui, sans-serif" font-size="12" fill="#1db954">Quick Resume</text>

    <rect x="-40" y="-16" width="90" height="32" rx="16" fill="rgba(16,124,16,0.15)" stroke="rgba(16,124,16,0.3)" stroke-width="1"/>
    <text x="5" y="5" font-family="Segoe UI, system-ui, sans-serif" font-size="12" fill="#1db954">6 Games</text>

    <rect x="70" y="-16" width="120" height="32" rx="16" fill="rgba(16,124,16,0.15)" stroke="rgba(16,124,16,0.3)" stroke-width="1"/>
    <text x="130" y="5" font-family="Segoe UI, system-ui, sans-serif" font-size="12" fill="#1db954">Cloud Gaming</text>

    <rect x="210" y="-16" width="130" height="32" rx="16" fill="rgba(16,124,16,0.15)" stroke="rgba(16,124,16,0.3)" stroke-width="1"/>
    <text x="275" y="5" font-family="Segoe UI, system-ui, sans-serif" font-size="12" fill="#1db954">Game Mode</text>
  </g>
</svg>
