<svg xmlns="http://www.w3.org/2000/svg" viewBox="0 0 512 128" width="512" height="128">
  <defs>
    <linearGradient id="gGreen" x1="0%" y1="0%" x2="100%" y2="100%">
      <stop offset="0%" style="stop-color:#0a5c0a"/>
      <stop offset="50%" style="stop-color:#107c10"/>
      <stop offset="100%" style="stop-color:#1db954"/>
    </linearGradient>
  </defs>
  <g transform="translate(8, 16)">
    <path d="M 24 48 Q 24 24 48 24 L 96 24 Q 120 24 120 48 L 120 72 Q 120 96 144 108 L 156 114 Q 168 120 168 132 L 168 138 Q 168 150 156 150 L 144 147 Q 120 141 108 144 L 96 147 Q 72 150 48 147 L 36 144 Q 24 141 12 150 L 0 153 Q -12 156 -12 144 L -12 138 Q -12 126 0 120 L 12 114 Q 36 105 36 84 L 36 72 Q 36 48 24 48 Z" fill="url(#gGreen)"/>
    <circle cx="60" cy="66" r="6" fill="#0a0a0a"/>
    <circle cx="84" cy="48" r="6" fill="#0a0a0a"/>
    <circle cx="108" cy="66" r="6" fill="#0a0a0a"/>
    <circle cx="84" cy="84" r="6" fill="#0a0a0a"/>
    <circle cx="84" cy="66" r="8" fill="none" stroke="url(#gGreen)" stroke-width="2"/>
  </g>
  <text x="200" y="76" font-family="'Segoe UI Variable','Segoe UI',system-ui,sans-serif" font-size="48" font-weight="800" letter-spacing="2" fill="url(#gGreen)">RQBBOX</text>
  <text x="200" y="110" font-family="'Segoe UI Variable','Segoe UI',system-ui,sans-serif" font-size="24" font-weight="300" letter-spacing="12" fill="rgba(255,255,255,0.4)">M O D E</text>
</svg>
