<svg xmlns="http://www.w3.org/2000/svg" viewBox="0 0 1200 630" width="1200" height="630">
  <defs>
    <linearGradient id="bg" x1="0%" y1="0%" x2="100%" y2="100%">
      <stop offset="0%" style="stop-color:#0e0e0e"/>
      <stop offset="100%" style="stop-color:#1a1a1a"/>
    </linearGradient>
    <linearGradient id="green" x1="0%" y1="0%" x2="100%" y2="100%">
      <stop offset="0%" style="stop-color:#107c10"/>
      <stop offset="100%" style="stop-color:#1db954"/>
    </linearGradient>
    <radialGradient id="glow" cx="50%" cy="40%" r="50%">
      <stop offset="0%" style="stop-color:rgba(16,124,16,0.2)"/>
      <stop offset="100%" style="stop-color:transparent"/>
    </radialGradient>
  </defs>
  
  <!-- Background -->
  <rect width="1200" height="630" fill="url(#bg)"/>
  <rect width="1200" height="630" fill="url(#glow)"/>
  
  <!-- Grid pattern -->
  <g opacity="0.03">
    <line x1="0" y1="0" x2="0" y2="630" stroke="white" stroke-width="1"/>
    <line x1="100" y1="0" x2="100" y2="630" stroke="white" stroke-width="1"/>
    <line x1="200" y1="0" x2="200" y2="630" stroke="white" stroke-width="1"/>
    <line x1="300" y1="0" x2="300" y2="630" stroke="white" stroke-width="1"/>
    <line x1="400" y1="0" x2="400" y2="630" stroke="white" stroke-width="1"/>
    <line x1="500" y1="0" x2="500" y2="630" stroke="white" stroke-width="1"/>
    <line x1="600" y1="0" x2="600" y2="630" stroke="white" stroke-width="1"/>
    <line x1="700" y1="0" x2="700" y2="630" stroke="white" stroke-width="1"/>
    <line x1="800" y1="0" x2="800" y2="630" stroke="white" stroke-width="1"/>
    <line x1="900" y1="0" x2="900" y2="630" stroke="white" stroke-width="1"/>
    <line x1="1000" y1="0" x2="1000" y2="630" stroke="white" stroke-width="1"/>
    <line x1="1100" y1="0" x2="1100" y2="630" stroke="white" stroke-width="1"/>
    <line x1="1200" y1="0" x2="1200" y2="630" stroke="white" stroke-width="1"/>
  </g>
  
  <!-- Gamepad icon -->
  <g transform="translate(500, 180)" opacity="0.15">
    <rect x="0" y="30" width="200" height="100" rx="20" fill="url(#green)"/>
    <ellipse cx="20" cy="100" rx="30" ry="40" fill="url(#green)"/>
    <ellipse cx="180" cy="100" rx="30" ry="40" fill="url(#green)"/>
  </g>
  
  <!-- Title -->
  <text x="600" y="320" text-anchor="middle" font-family="Segoe UI, system-ui, sans-serif" font-size="80" font-weight="700" fill="url(#green)">RQBBOX Experience OS 1.0</text>
  
  <!-- Subtitle -->
  <text x="600" y="380" text-anchor="middle" font-family="Segoe UI, system-ui, sans-serif" font-size="28" fill="#a0a0a0">Console Gaming Experience for PC</text>
  
  <!-- Features -->
  <text x="600" y="440" text-anchor="middle" font-family="Segoe UI, system-ui, sans-serif" font-size="18" fill="#666">
    Full-Screen Dashboard • Controller Navigation • Game Mode • Quick Resume • Cloud Gaming
  </text>
  
  <!-- GitHub -->
  <text x="600" y="540" text-anchor="middle" font-family="Segoe UI, system-ui, sans-serif" font-size="16" fill="#107c10">
    github.com/Rtech-Rqbbox-os/RQBBOX-MODE
  </text>
</svg>
